<svg xmlns="http://www.w3.org/2000/svg" xmlns:xlink="http://www.w3.org/1999/xlink" width="1122" zoomAndPan="magnify" viewBox="0 0 841.92 595.499987" height="793" preserveAspectRatio="xMidYMid meet" version="1.0"><defs><g/><clipPath id="706bbbf233"><path d="M 0.3125 0 L 841.527344 0 L 841.527344 595 L 0.3125 595 Z M 0.3125 0 " clip-rule="nonzero"/></clipPath><clipPath id="153805ea71"><path d="M 0.3125 0 L 841.527344 0 L 841.527344 594.824219 L 0.3125 594.824219 Z M 0.3125 0 " clip-rule="nonzero"/></clipPath><clipPath id="83ff80b2fb"><path d="M 20.117188 23.871094 L 821.703125 23.871094 L 821.703125 570.75 L 20.117188 570.75 Z M 20.117188 23.871094 " clip-rule="nonzero"/></clipPath><clipPath id="64af961ab3"><path d="M 0.3125 0 L 238 0 L 238 260 L 0.3125 260 Z M 0.3125 0 " clip-rule="nonzero"/></clipPath><clipPath id="9ca079560d"><path d="M 241.640625 -31.375 L -64.53125 263.046875 L -241.082031 79.453125 L 65.089844 -214.96875 Z M 241.640625 -31.375 " clip-rule="nonzero"/></clipPath><clipPath id="33c27aa15b"><path d="M 0.3125 0 L 242 0 L 242 264 L 0.3125 264 Z M 0.3125 0 " clip-rule="nonzero"/></clipPath><clipPath id="9274b13bf7"><path d="M 241.640625 -31.375 L -64.53125 263.046875 L -241.082031 79.453125 L 65.089844 -214.96875 Z M 241.640625 -31.375 " clip-rule="nonzero"/></clipPath><clipPath id="82812c0aa6"><path d="M 603 339 L 841.527344 339 L 841.527344 594.824219 L 603 594.824219 Z M 603 339 " clip-rule="nonzero"/></clipPath><clipPath id="da37cb0f31"><path d="M 1082.574219 519.066406 L 776.402344 813.488281 L 599.851562 629.890625 L 906.023438 335.46875 Z M 1082.574219 519.066406 " clip-rule="nonzero"/></clipPath><clipPath id="9c3e93a986"><path d="M 599 335 L 841.527344 335 L 841.527344 594.824219 L 599 594.824219 Z M 599 335 " clip-rule="nonzero"/></clipPath><clipPath id="c56fe84ab2"><path d="M 1082.574219 519.066406 L 776.402344 813.488281 L 599.851562 629.890625 L 906.023438 335.46875 Z M 1082.574219 519.066406 " clip-rule="nonzero"/></clipPath><clipPath id="10b1695ea5"><path d="M 603 379 L 841.527344 379 L 841.527344 594.824219 L 603 594.824219 Z M 603 379 " clip-rule="nonzero"/></clipPath><clipPath id="d1c34315eb"><path d="M 1082.574219 559.640625 L 776.402344 854.066406 L 599.851562 670.46875 L 906.023438 376.046875 Z M 1082.574219 559.640625 " clip-rule="nonzero"/></clipPath><clipPath id="b1a4e2fb3b"><path d="M 599 376 L 841.527344 376 L 841.527344 594.824219 L 599 594.824219 Z M 599 376 " clip-rule="nonzero"/></clipPath><clipPath id="9c8a026563"><path d="M 1082.574219 559.640625 L 776.402344 854.066406 L 599.851562 670.46875 L 906.023438 376.046875 Z M 1082.574219 559.640625 " clip-rule="nonzero"/></clipPath><clipPath id="1d40d60f9b"><path d="M 0.3125 0 L 238 0 L 238 219 L 0.3125 219 Z M 0.3125 0 " clip-rule="nonzero"/></clipPath><clipPath id="f923b6d6ca"><path d="M 241.640625 -71.953125 L -64.53125 222.46875 L -241.082031 38.875 L 65.089844 -255.546875 Z M 241.640625 -71.953125 " clip-rule="nonzero"/></clipPath><clipPath id="6d4875ce9f"><path d="M 0.3125 0 L 242 0 L 242 223 L 0.3125 223 Z M 0.3125 0 " clip-rule="nonzero"/></clipPath><clipPath id="ea0a05c7d0"><path d="M 241.640625 -71.953125 L -64.53125 222.46875 L -241.082031 38.875 L 65.089844 -255.546875 Z M 241.640625 -71.953125 " clip-rule="nonzero"/></clipPath><clipPath id="9215517c72"><path d="M 96 119 L 139 119 L 139 210.84375 L 96 210.84375 Z M 96 119 " clip-rule="nonzero"/></clipPath><clipPath id="509f0ff7c4"><path d="M 121 114 L 166.324219 114 L 166.324219 200 L 121 200 Z M 121 114 " clip-rule="nonzero"/></clipPath><clipPath id="096807f52e"><path d="M 64 119 L 107 119 L 107 210.84375 L 64 210.84375 Z M 64 119 " clip-rule="nonzero"/></clipPath><clipPath id="daf5449f84"><path d="M 36.722656 114 L 82 114 L 82 200 L 36.722656 200 Z M 36.722656 114 " clip-rule="nonzero"/></clipPath><clipPath id="2122cf48c6"><path d="M 41 32.546875 L 162 32.546875 L 162 154 L 41 154 Z M 41 32.546875 " clip-rule="nonzero"/></clipPath><clipPath id="febbdfbafd"><path d="M 101 32.546875 L 162 32.546875 L 162 154 L 101 154 Z M 101 32.546875 " clip-rule="nonzero"/></clipPath></defs><g clip-path="url(#706bbbf233)"><path fill="#ffffff" d="M 0.3125 0 L 841.605469 0 L 841.605469 602.316406 L 0.3125 602.316406 Z M 0.3125 0 " fill-opacity="1" fill-rule="nonzero"/></g><g clip-path="url(#153805ea71)"><path fill="#ffffff" d="M 0.3125 0 L 841.605469 0 L 841.605469 594.824219 L 0.3125 594.824219 Z M 0.3125 0 " fill-opacity="1" fill-rule="nonzero"/><path fill="#f7f2ef" d="M 0.3125 0 L 841.605469 0 L 841.605469 594.824219 L 0.3125 594.824219 Z M 0.3125 0 " fill-opacity="1" fill-rule="nonzero"/></g><g clip-path="url(#83ff80b2fb)"><path fill="#ffffff" d="M 20.117188 23.875 L 821.703125 23.875 L 821.703125 570.746094 L 20.117188 570.746094 L 20.117188 23.875 " fill-opacity="1" fill-rule="nonzero"/></g><g clip-path="url(#64af961ab3)"><g clip-path="url(#9ca079560d)"><path fill="#183263" d="M 237.726562 -31.449219 L -64.453125 259.132812 L -237.164062 79.527344 L 65.011719 -211.054688 L 237.726562 -31.449219 " fill-opacity="1" fill-rule="nonzero"/></g></g><g clip-path="url(#33c27aa15b)"><g clip-path="url(#9274b13bf7)"><path fill="#ffbd59" d="M -233.25 79.597656 L -237.246094 83.441406 L -241.082031 79.453125 L -237.085938 75.609375 L -233.25 79.597656 M 237.804688 -35.363281 L 233.808594 -31.519531 L 64.929688 -207.140625 L 68.925781 -210.980469 L 237.804688 -35.363281 M 68.925781 -210.980469 L 64.929688 -207.140625 L 61.09375 -211.128906 L 65.089844 -214.96875 L 68.925781 -210.980469 M -64.371094 255.21875 L -68.367188 259.058594 L -237.246094 83.441406 L -233.25 79.597656 L -64.371094 255.21875 M 64.929688 -207.140625 L -233.25 79.597656 L -237.085938 75.609375 L 61.09375 -211.128906 L 64.929688 -207.140625 M -60.535156 259.207031 L -64.53125 263.046875 L -68.367188 259.058594 L -64.371094 255.21875 L -60.535156 259.207031 M 241.640625 -31.375 L 237.644531 -27.53125 L 233.808594 -31.519531 L 237.804688 -35.363281 L 241.640625 -31.375 M 237.644531 -27.53125 L -60.535156 259.207031 L -64.371094 255.21875 L 233.808594 -31.519531 L 237.644531 -27.53125 " fill-opacity="1" fill-rule="nonzero"/></g></g><g clip-path="url(#82812c0aa6)"><g clip-path="url(#da37cb0f31)"><path fill="#183263" d="M 1078.660156 518.992188 L 776.480469 809.570312 L 603.769531 629.964844 L 905.945312 339.386719 L 1078.660156 518.992188 " fill-opacity="1" fill-rule="nonzero"/></g></g><g clip-path="url(#9c3e93a986)"><g clip-path="url(#c56fe84ab2)"><path fill="#ffbd59" d="M 607.683594 630.039062 L 603.6875 633.878906 L 599.851562 629.890625 L 603.847656 626.050781 L 607.683594 630.039062 M 1078.738281 515.078125 L 1074.742188 518.917969 L 905.867188 343.300781 L 909.859375 339.457031 L 1078.738281 515.078125 M 909.859375 339.457031 L 905.867188 343.300781 L 902.027344 339.3125 L 906.023438 335.46875 L 909.859375 339.457031 M 776.5625 805.65625 L 772.566406 809.496094 L 603.6875 633.878906 L 607.683594 630.039062 L 776.5625 805.65625 M 905.867188 343.300781 L 607.683594 630.039062 L 603.847656 626.050781 L 902.027344 339.3125 L 905.867188 343.300781 M 780.398438 809.644531 L 776.402344 813.488281 L 772.566406 809.496094 L 776.5625 805.65625 L 780.398438 809.644531 M 1082.574219 519.066406 L 1078.578125 522.90625 L 1074.742188 518.917969 L 1078.738281 515.078125 L 1082.574219 519.066406 M 1078.578125 522.90625 L 780.398438 809.644531 L 776.5625 805.65625 L 1074.742188 518.917969 L 1078.578125 522.90625 " fill-opacity="1" fill-rule="nonzero"/></g></g><g clip-path="url(#10b1695ea5)"><g clip-path="url(#d1c34315eb)"><path fill="#183263" d="M 1078.660156 559.570312 L 776.480469 850.148438 L 603.769531 670.542969 L 905.945312 379.960938 L 1078.660156 559.570312 " fill-opacity="1" fill-rule="nonzero"/></g></g><g clip-path="url(#b1a4e2fb3b)"><g clip-path="url(#9c8a026563)"><path fill="#ffbd59" d="M 607.683594 670.617188 L 603.6875 674.457031 L 599.851562 670.46875 L 603.847656 666.628906 L 607.683594 670.617188 M 1078.738281 555.652344 L 1074.742188 559.496094 L 905.867188 383.878906 L 909.859375 380.035156 L 1078.738281 555.652344 M 909.859375 380.035156 L 905.867188 383.878906 L 902.027344 379.890625 L 906.023438 376.046875 L 909.859375 380.035156 M 776.5625 846.234375 L 772.566406 850.074219 L 603.6875 674.457031 L 607.683594 670.617188 L 776.5625 846.234375 M 905.867188 383.878906 L 607.683594 670.617188 L 603.847656 666.628906 L 902.027344 379.890625 L 905.867188 383.878906 M 780.398438 850.222656 L 776.402344 854.066406 L 772.566406 850.074219 L 776.5625 846.234375 L 780.398438 850.222656 M 1082.574219 559.644531 L 1078.578125 563.484375 L 1074.742188 559.496094 L 1078.738281 555.652344 L 1082.574219 559.644531 M 1078.578125 563.484375 L 780.398438 850.222656 L 776.5625 846.234375 L 1074.742188 559.496094 L 1078.578125 563.484375 " fill-opacity="1" fill-rule="nonzero"/></g></g><g clip-path="url(#1d40d60f9b)"><g clip-path="url(#f923b6d6ca)"><path fill="#183263" d="M 237.726562 -72.023438 L -64.453125 218.554688 L -237.164062 38.949219 L 65.011719 -251.632812 L 237.726562 -72.023438 " fill-opacity="1" fill-rule="nonzero"/></g></g><g clip-path="url(#6d4875ce9f)"><g clip-path="url(#ea0a05c7d0)"><path fill="#ffbd59" d="M -233.25 39.019531 L -237.246094 42.863281 L -241.082031 38.875 L -237.085938 35.03125 L -233.25 39.019531 M 237.804688 -75.941406 L 233.808594 -72.097656 L 64.929688 -247.71875 L 68.925781 -251.558594 L 237.804688 -75.941406 M 68.925781 -251.558594 L 64.929688 -247.71875 L 61.09375 -251.707031 L 65.089844 -255.546875 L 68.925781 -251.558594 M -64.371094 214.640625 L -68.367188 218.480469 L -237.246094 42.863281 L -233.25 39.019531 L -64.371094 214.640625 M 64.929688 -247.71875 L -233.25 39.019531 L -237.085938 35.03125 L 61.09375 -251.707031 L 64.929688 -247.71875 M -60.535156 218.628906 L -64.53125 222.46875 L -68.367188 218.480469 L -64.371094 214.640625 L -60.535156 218.628906 M 241.640625 -71.953125 L 237.644531 -68.109375 L 233.808594 -72.097656 L 237.804688 -75.941406 L 241.640625 -71.953125 M 237.644531 -68.109375 L -60.535156 218.628906 L -64.371094 214.640625 L 233.808594 -72.097656 L 237.644531 -68.109375 " fill-opacity="1" fill-rule="nonzero"/></g></g><path stroke-linecap="round" transform="matrix(1.497647, 0, 0, 1.498297, 110.117895, 335.324767)" fill="none" stroke-linejoin="miter" d="M 0.500313 -0.000366236 L 414.188221 -0.000366236 " stroke="#a6a6a6" stroke-width="1" stroke-opacity="1" stroke-miterlimit="4"/><g clip-path="url(#9215517c72)"><path fill="#991b28" d="M 138.554688 196.425781 L 114.589844 210.710938 L 96.066406 125.300781 L 121.917969 119.71875 L 138.554688 196.425781 " fill-opacity="1" fill-rule="nonzero"/></g><g clip-path="url(#509f0ff7c4)"><path fill="#c32435" d="M 138.554688 196.425781 L 166.292969 199.539062 L 147.78125 114.132812 L 121.917969 119.71875 L 138.554688 196.425781 " fill-opacity="1" fill-rule="nonzero"/></g><path fill="#b32130" d="M 152.425781 197.984375 L 138.554688 196.425781 L 127.867188 147.136719 L 129.238281 147.1875 L 134.914062 138.773438 L 139.316406 137.511719 L 152.425781 197.984375 " fill-opacity="1" fill-rule="nonzero"/><path fill="#8d1924" d="M 126.566406 203.558594 L 114.964844 150.023438 L 119.0625 146.832031 L 127.867188 147.136719 L 138.554688 196.425781 L 126.566406 203.558594 " fill-opacity="1" fill-rule="nonzero"/><g clip-path="url(#096807f52e)"><path fill="#991b28" d="M 64.433594 196.425781 L 88.410156 210.710938 L 106.921875 125.300781 L 81.058594 119.71875 L 64.433594 196.425781 " fill-opacity="1" fill-rule="nonzero"/></g><g clip-path="url(#daf5449f84)"><path fill="#c32435" d="M 64.433594 196.425781 L 36.695312 199.539062 L 55.21875 114.132812 L 81.058594 119.71875 L 64.433594 196.425781 " fill-opacity="1" fill-rule="nonzero"/></g><path fill="#b32130" d="M 50.570312 197.984375 L 63.675781 137.511719 L 68.0625 138.773438 L 73.75 147.1875 L 75.117188 147.136719 L 64.433594 196.425781 L 50.570312 197.984375 " fill-opacity="1" fill-rule="nonzero"/><path fill="#8d1924" d="M 76.421875 203.558594 L 64.433594 196.425781 L 75.117188 147.136719 L 83.914062 146.832031 L 88.023438 150.027344 L 76.421875 203.558594 " fill-opacity="1" fill-rule="nonzero"/><g clip-path="url(#2122cf48c6)"><path fill="#d89816" d="M 101.488281 36.089844 L 111.050781 32.621094 L 119.0625 38.867188 L 129.238281 38.523438 L 134.914062 46.933594 L 144.703125 49.730469 L 147.503906 59.488281 L 155.933594 65.167969 L 155.589844 75.308594 L 161.847656 83.316406 L 158.363281 92.847656 L 161.847656 102.390625 L 155.589844 110.386719 L 155.933594 120.53125 L 147.503906 126.207031 L 144.703125 135.964844 L 134.914062 138.773438 L 129.238281 147.1875 L 119.0625 146.832031 L 111.050781 153.078125 L 101.488281 149.609375 L 91.9375 153.078125 L 83.914062 146.832031 L 73.75 147.1875 L 68.0625 138.773438 L 58.285156 135.964844 L 55.484375 126.207031 L 47.054688 120.53125 L 47.410156 110.386719 L 41.152344 102.390625 L 44.628906 92.847656 L 41.152344 83.316406 L 47.410156 75.308594 L 47.054688 65.167969 L 55.484375 59.488281 L 58.285156 49.730469 L 68.0625 46.933594 L 73.75 38.523438 L 83.914062 38.867188 L 91.9375 32.621094 L 101.488281 36.089844 " fill-opacity="1" fill-rule="nonzero"/></g><path fill="#f5c116" d="M 101.488281 41.949219 L 110.074219 38.835938 L 117.257812 44.445312 L 126.371094 44.125 L 131.472656 51.675781 L 140.246094 54.179688 L 142.753906 62.929688 L 150.320312 68.027344 L 150.003906 77.121094 L 155.609375 84.292969 L 152.492188 92.847656 L 155.609375 101.40625 L 150.003906 108.578125 L 150.320312 117.671875 L 142.753906 122.769531 L 140.246094 131.519531 L 131.472656 134.03125 L 126.371094 141.582031 L 117.257812 141.253906 L 110.074219 146.859375 L 101.488281 143.746094 L 92.925781 146.859375 L 85.730469 141.253906 L 76.617188 141.582031 L 71.519531 134.03125 L 62.753906 131.519531 L 60.234375 122.769531 L 52.671875 117.671875 L 52.996094 108.578125 L 47.371094 101.40625 L 50.496094 92.847656 L 47.371094 84.292969 L 52.996094 77.121094 L 52.671875 68.027344 L 60.234375 62.929688 L 62.753906 54.179688 L 71.519531 51.675781 L 76.617188 44.125 L 85.730469 44.445312 L 92.925781 38.835938 L 101.488281 41.949219 " fill-opacity="1" fill-rule="nonzero"/><path fill="#d89816" d="M 142.4375 92.847656 L 142.230469 92.847656 C 142.230469 104.078125 137.667969 114.242188 130.300781 121.601562 C 122.925781 128.960938 112.742188 133.507812 101.488281 133.507812 C 90.238281 133.507812 80.058594 128.960938 72.6875 121.601562 C 65.320312 114.242188 60.757812 104.078125 60.757812 92.847656 C 60.757812 81.625 65.320312 71.464844 72.6875 64.105469 C 80.058594 56.75 90.238281 52.203125 101.488281 52.203125 C 112.742188 52.203125 122.925781 56.75 130.300781 64.105469 C 137.667969 71.464844 142.230469 81.625 142.230469 92.847656 L 142.648438 92.847656 C 142.648438 70.167969 124.226562 51.78125 101.488281 51.78125 C 78.761719 51.78125 60.339844 70.167969 60.339844 92.847656 C 60.339844 115.539062 78.761719 133.925781 101.488281 133.925781 C 124.226562 133.925781 142.648438 115.539062 142.648438 92.847656 L 142.4375 92.847656 " fill-opacity="1" fill-rule="nonzero"/><path fill="#e9e9e9" d="M 101.488281 36.089844 L 101.296875 36.019531 L 101.488281 36.089844 " fill-opacity="1" fill-rule="nonzero"/><g clip-path="url(#febbdfbafd)"><path fill="#c68b14" d="M 111.050781 153.078125 L 101.640625 149.664062 L 101.488281 149.609375 L 101.296875 149.679688 L 101.296875 143.816406 L 101.488281 143.746094 L 110.074219 146.859375 L 117.257812 141.253906 L 126.371094 141.582031 L 131.472656 134.03125 L 140.246094 131.519531 L 142.753906 122.769531 L 150.320312 117.671875 L 150.003906 108.578125 L 155.609375 101.40625 L 152.492188 92.847656 L 155.609375 84.292969 L 150.003906 77.121094 L 150.320312 68.027344 L 142.753906 62.929688 L 140.246094 54.179688 L 131.472656 51.675781 L 126.371094 44.125 L 117.257812 44.445312 L 110.074219 38.835938 L 101.488281 41.949219 L 101.296875 41.878906 L 101.296875 36.019531 L 101.488281 36.089844 L 111.050781 32.621094 L 119.0625 38.867188 L 129.238281 38.523438 L 134.914062 46.933594 L 144.703125 49.730469 L 147.503906 59.488281 L 155.933594 65.167969 L 155.589844 75.308594 L 161.847656 83.316406 L 158.363281 92.847656 L 161.847656 102.390625 L 155.589844 110.386719 L 155.933594 120.53125 L 147.503906 126.207031 L 144.703125 135.964844 L 134.914062 138.773438 L 129.238281 147.1875 L 127.867188 147.136719 L 119.0625 146.832031 L 114.964844 150.023438 L 111.050781 153.078125 " fill-opacity="1" fill-rule="nonzero"/></g><path fill="#e0b014" d="M 110.074219 146.859375 L 101.488281 143.746094 L 101.296875 143.816406 L 101.296875 133.925781 C 101.359375 133.925781 101.425781 133.925781 101.488281 133.925781 C 124.226562 133.925781 142.648438 115.539062 142.648438 92.847656 C 142.648438 70.167969 124.226562 51.78125 101.488281 51.78125 C 101.425781 51.78125 101.359375 51.78125 101.296875 51.78125 L 101.296875 41.878906 L 101.488281 41.949219 L 110.074219 38.835938 L 117.257812 44.445312 L 126.371094 44.125 L 131.472656 51.675781 L 140.246094 54.179688 L 142.753906 62.929688 L 150.320312 68.027344 L 150.003906 77.121094 L 155.609375 84.292969 L 152.492188 92.847656 L 155.609375 101.40625 L 150.003906 108.578125 L 150.320312 117.671875 L 142.753906 122.769531 L 140.246094 131.519531 L 131.472656 134.03125 L 126.371094 141.582031 L 117.257812 141.253906 L 110.074219 146.859375 M 101.488281 133.507812 C 101.425781 133.507812 101.359375 133.507812 101.296875 133.507812 L 101.296875 52.203125 C 101.359375 52.203125 101.425781 52.203125 101.488281 52.203125 C 112.742188 52.203125 122.925781 56.75 130.300781 64.105469 C 137.667969 71.464844 142.230469 81.625 142.230469 92.847656 C 142.230469 104.078125 137.667969 114.242188 130.300781 121.601562 C 122.925781 128.960938 112.742188 133.507812 101.488281 133.507812 " fill-opacity="1" fill-rule="nonzero"/><path fill="#c68b14" d="M 101.488281 133.925781 C 101.425781 133.925781 101.359375 133.925781 101.296875 133.925781 L 101.296875 133.507812 C 101.359375 133.507812 101.425781 133.507812 101.488281 133.507812 C 112.742188 133.507812 122.925781 128.960938 130.300781 121.601562 C 137.667969 114.242188 142.230469 104.078125 142.230469 92.847656 C 142.230469 81.625 137.667969 71.464844 130.300781 64.105469 C 122.925781 56.75 112.742188 52.203125 101.488281 52.203125 C 101.425781 52.203125 101.359375 52.203125 101.296875 52.203125 L 101.296875 51.78125 C 101.359375 51.78125 101.425781 51.78125 101.488281 51.78125 C 124.226562 51.78125 142.648438 70.167969 142.648438 92.847656 C 142.648438 115.539062 124.226562 133.925781 101.488281 133.925781 " fill-opacity="1" fill-rule="nonzero"/><g fill="#000000" fill-opacity="1"><g transform="translate(300.700239, 138.324917)"><g><path d="M 29.714844 -33.839844 L 29.714844 -41.949219 L 4.472656 -41.949219 L 4.472656 0 L 29.714844 0 L 29.714844 -8.109375 L 13.703125 -8.109375 L 13.703125 -16.917969 L 27.40625 -16.917969 L 27.40625 -25.03125 L 13.703125 -25.03125 L 13.703125 -33.839844 Z M 29.714844 -33.839844 "/></g></g></g><g fill="#000000" fill-opacity="1"><g transform="translate(333.278667, 138.324917)"><g><path d="M 37.472656 -28.523438 C 33.488281 -28.523438 30.414062 -26.707031 28.664062 -23.632812 C 27.058594 -26.566406 24.261719 -28.523438 20.695312 -28.523438 C 17.480469 -28.523438 14.890625 -26.988281 13.074219 -24.539062 L 13.074219 -27.964844 L 4.125 -27.964844 L 4.125 0 L 13.074219 0 L 13.074219 -16.21875 C 13.074219 -18.246094 14.332031 -20.625 17.058594 -20.625 C 19.507812 -20.625 21.113281 -18.667969 21.113281 -16.21875 L 21.113281 0 L 30.0625 0 L 30.0625 -16.21875 C 30.0625 -18.246094 31.320312 -20.625 34.046875 -20.625 C 36.496094 -20.625 38.171875 -18.667969 38.171875 -16.21875 L 38.171875 0 L 47.050781 0 L 47.050781 -17.6875 C 47.050781 -24.191406 43.625 -28.523438 37.472656 -28.523438 Z M 37.472656 -28.523438 "/></g></g></g><g fill="#000000" fill-opacity="1"><g transform="translate(383.894085, 138.324917)"><g><path d="M 21.042969 -28.523438 C 17.828125 -28.523438 15.171875 -27.40625 13.074219 -25.519531 L 13.074219 -27.894531 L 4.125 -27.964844 L 4.125 16.78125 L 13.074219 16.847656 L 13.074219 -2.445312 C 15.171875 -0.558594 17.828125 0.558594 21.042969 0.558594 C 28.734375 0.558594 34.816406 -5.871094 34.816406 -13.984375 C 34.816406 -22.09375 28.734375 -28.523438 21.042969 -28.523438 Z M 19.296875 -7.339844 C 15.589844 -7.339844 12.65625 -10.277344 12.65625 -13.984375 C 12.65625 -17.6875 15.589844 -20.625 19.296875 -20.625 C 23 -20.625 25.9375 -17.6875 25.9375 -13.984375 C 25.9375 -10.277344 23 -7.339844 19.296875 -7.339844 Z M 19.296875 -7.339844 "/></g></g></g><g fill="#000000" fill-opacity="1"><g transform="translate(420.876892, 138.324917)"><g><path d="M 20.90625 -28.523438 C 17.617188 -28.523438 14.890625 -26.847656 13.074219 -24.121094 L 13.074219 -27.964844 L 4.125 -27.964844 L 4.125 0 L 13.074219 0 L 13.074219 -13.355469 C 13.074219 -17.96875 16.21875 -20.625 20.625 -20.625 C 21.671875 -20.625 22.582031 -20.484375 23.210938 -20.34375 L 23.210938 -28.246094 C 22.582031 -28.457031 21.742188 -28.523438 20.90625 -28.523438 Z M 20.90625 -28.523438 "/></g></g></g><g fill="#000000" fill-opacity="1"><g transform="translate(443.94745, 138.324917)"><g><path d="M 32.578125 -14.054688 C 32.578125 -22.792969 26.566406 -28.59375 17.546875 -28.59375 C 8.53125 -28.59375 2.167969 -22.722656 2.167969 -13.984375 C 2.167969 -5.242188 8.460938 0.558594 17.828125 0.558594 C 25.589844 0.558594 30.761719 -3.566406 32.160156 -9.648438 L 23.5625 -9.648438 C 22.792969 -7.410156 20.765625 -6.082031 17.6875 -6.082031 C 13.632812 -6.082031 11.535156 -8.53125 11.1875 -12.515625 L 32.578125 -12.515625 Z M 17.6875 -21.742188 C 20.695312 -21.742188 22.441406 -20.34375 23.351562 -17.898438 L 11.746094 -17.898438 C 12.65625 -20.273438 14.542969 -21.742188 17.6875 -21.742188 Z M 17.6875 -21.742188 "/></g></g></g><g fill="#000000" fill-opacity="1"><g transform="translate(478.62321, 138.324917)"><g><path d="M 13.144531 0.558594 C 19.4375 0.558594 23.28125 -3.285156 23.28125 -8.53125 C 23.28125 -14.121094 18.667969 -16.359375 14.683594 -17.898438 C 12.65625 -18.738281 11.675781 -19.15625 11.675781 -20.207031 C 11.675781 -21.113281 12.375 -21.8125 13.914062 -21.8125 C 15.730469 -21.8125 17.410156 -20.835938 18.246094 -19.785156 L 22.722656 -24.820312 C 20.625 -26.917969 17.199219 -28.523438 13.285156 -28.523438 C 6.921875 -28.523438 2.867188 -24.332031 2.867188 -19.574219 C 2.867188 -13.984375 8.460938 -12.09375 11.675781 -10.90625 C 14.191406 -9.929688 15.03125 -9.230469 15.03125 -8.25 C 15.03125 -7.132812 14.054688 -6.503906 12.585938 -6.503906 C 11.117188 -6.503906 9.160156 -7.0625 7.898438 -9.4375 L 1.328125 -6.152344 C 3.007812 -1.816406 8.179688 0.558594 13.144531 0.558594 Z M 13.144531 0.558594 "/></g></g></g><g fill="#000000" fill-opacity="1"><g transform="translate(503.231822, 138.324917)"><g><path d="M 35.308594 -7.269531 C 34.117188 -7.269531 32.859375 -7.691406 32.859375 -9.996094 L 32.859375 -27.964844 L 23.980469 -27.964844 L 23.980469 -25.519531 C 21.882812 -27.40625 19.226562 -28.523438 16.011719 -28.523438 C 8.25 -28.523438 2.167969 -22.09375 2.167969 -13.984375 C 2.167969 -5.871094 8.25 0.558594 16.011719 0.558594 C 20.066406 0.558594 23.351562 -1.257812 25.589844 -4.195312 C 27.335938 -1.328125 30.414062 0.558594 34.1875 0.558594 C 35.097656 0.558594 35.9375 0.28125 36.566406 0 L 36.566406 -7.269531 Z M 17.757812 -7.339844 C 14.054688 -7.339844 11.117188 -10.277344 11.117188 -13.984375 C 11.117188 -17.6875 14.054688 -20.625 17.757812 -20.625 C 21.394531 -20.625 24.398438 -17.6875 24.398438 -13.984375 C 24.398438 -10.277344 21.394531 -7.339844 17.757812 -7.339844 Z M 17.757812 -7.339844 "/></g></g></g><g fill="#000000" fill-opacity="1"><g transform="translate(262.381067, 181.694904)"><g><path d="M 10.699219 0.238281 C 14.144531 0.238281 17.140625 -1.648438 18.730469 -4.433594 L 17.082031 -5.363281 C 15.851562 -3.144531 13.453125 -1.679688 10.699219 -1.679688 C 6.652344 -1.679688 3.386719 -4.914062 3.386719 -8.988281 C 3.386719 -13.066406 6.652344 -16.300781 10.699219 -16.300781 C 13.453125 -16.300781 15.851562 -14.832031 17.082031 -12.617188 L 18.730469 -13.542969 C 17.140625 -16.332031 14.144531 -18.21875 10.699219 -18.21875 C 5.605469 -18.21875 1.46875 -14.085938 1.46875 -8.988281 C 1.46875 -3.894531 5.605469 0.238281 10.699219 0.238281 Z M 10.699219 0.238281 "/></g></g></g><g fill="#000000" fill-opacity="1"><g transform="translate(282.098633, 181.694904)"><g><path d="M 13.8125 -6.113281 C 13.722656 -9.558594 10.996094 -12.226562 7.582031 -12.226562 C 4.136719 -12.226562 1.347656 -9.4375 1.347656 -5.992188 C 1.347656 -2.546875 4.136719 0.238281 7.582031 0.238281 C 10.429688 0.238281 12.796875 -1.648438 13.574219 -4.226562 L 11.597656 -4.226562 C 10.9375 -2.667969 9.378906 -1.617188 7.582031 -1.617188 C 5.214844 -1.617188 3.328125 -3.417969 3.207031 -5.722656 L 13.785156 -5.722656 Z M 7.582031 -10.367188 C 9.5 -10.367188 11.117188 -9.140625 11.6875 -7.402344 L 3.445312 -7.402344 C 4.046875 -9.140625 5.664062 -10.367188 7.582031 -10.367188 Z M 7.582031 -10.367188 "/></g></g></g><g fill="#000000" fill-opacity="1"><g transform="translate(297.141521, 181.694904)"><g><path d="M 8.03125 -12.226562 C 6.324219 -12.226562 4.945312 -11.476562 4.046875 -10.277344 L 4.046875 -11.988281 L 2.1875 -11.988281 L 2.1875 0 L 4.046875 0 L 4.046875 -6.503906 C 4.046875 -8.691406 5.84375 -10.367188 8.03125 -10.367188 C 8.390625 -10.367188 8.691406 -10.339844 8.960938 -10.25 L 8.960938 -12.136719 C 8.691406 -12.195312 8.390625 -12.226562 8.03125 -12.226562 Z M 8.03125 -12.226562 "/></g></g></g><g fill="#000000" fill-opacity="1"><g transform="translate(306.251155, 181.694904)"><g><path d="M 7.703125 -10.1875 L 7.703125 -11.988281 L 4.496094 -11.988281 L 4.496094 -17.199219 L 2.636719 -17.199219 L 2.636719 -11.988281 L 0.628906 -11.988281 L 0.628906 -10.1875 L 2.636719 -10.1875 L 2.636719 -3.144531 C 2.636719 -1.257812 4.226562 0.238281 6.082031 0.238281 C 6.683594 0.238281 7.339844 0.0585938 7.671875 -0.148438 L 7.671875 -1.558594 L 6.292969 -1.558594 C 5.332031 -1.558594 4.496094 -2.277344 4.496094 -3.386719 L 4.496094 -10.1875 Z M 7.703125 -10.1875 "/></g></g></g><g fill="#000000" fill-opacity="1"><g transform="translate(314.941269, 181.694904)"><g><path d="M 3.355469 -14.234375 C 4.046875 -14.234375 4.644531 -14.804688 4.644531 -15.492188 C 4.644531 -16.242188 4.046875 -16.78125 3.355469 -16.78125 C 2.636719 -16.78125 2.039062 -16.242188 2.039062 -15.492188 C 2.039062 -14.804688 2.636719 -14.234375 3.355469 -14.234375 Z M 2.425781 0 L 4.285156 0 L 4.285156 -11.988281 L 2.425781 -11.988281 Z M 2.425781 0 "/></g></g></g><g fill="#000000" fill-opacity="1"><g transform="translate(321.62367, 181.694904)"><g><path d="M 7.941406 -11.988281 L 4.734375 -11.988281 L 4.734375 -18.429688 C 4.734375 -19.539062 5.574219 -20.257812 6.53125 -20.257812 L 7.910156 -20.226562 L 7.910156 -21.664062 C 7.582031 -21.875 6.921875 -22.054688 6.324219 -22.054688 C 4.464844 -22.054688 2.875 -20.554688 2.875 -18.667969 L 2.875 -11.988281 L 0.867188 -11.988281 L 0.867188 -10.1875 L 2.875 -10.1875 L 2.875 0 L 4.734375 0 L 4.734375 -10.1875 L 7.941406 -10.1875 Z M 7.941406 -11.988281 "/></g></g></g><g fill="#000000" fill-opacity="1"><g transform="translate(329.894262, 181.694904)"><g><path d="M 3.355469 -14.234375 C 4.046875 -14.234375 4.644531 -14.804688 4.644531 -15.492188 C 4.644531 -16.242188 4.046875 -16.78125 3.355469 -16.78125 C 2.636719 -16.78125 2.039062 -16.242188 2.039062 -15.492188 C 2.039062 -14.804688 2.636719 -14.234375 3.355469 -14.234375 Z M 2.425781 0 L 4.285156 0 L 4.285156 -11.988281 L 2.425781 -11.988281 Z M 2.425781 0 "/></g></g></g><g fill="#000000" fill-opacity="1"><g transform="translate(336.576664, 181.694904)"><g><path d="M 7.582031 0.238281 C 10.367188 0.238281 12.707031 -1.558594 13.515625 -4.074219 L 11.535156 -4.074219 C 10.816406 -2.605469 9.320312 -1.617188 7.582031 -1.617188 C 5.152344 -1.617188 3.207031 -3.535156 3.207031 -5.992188 C 3.207031 -8.449219 5.152344 -10.367188 7.582031 -10.367188 C 9.320312 -10.367188 10.816406 -9.378906 11.535156 -7.910156 L 13.515625 -7.910156 C 12.707031 -10.429688 10.367188 -12.226562 7.582031 -12.226562 C 4.136719 -12.226562 1.347656 -9.4375 1.347656 -5.992188 C 1.347656 -2.546875 4.136719 0.238281 7.582031 0.238281 Z M 7.582031 0.238281 "/></g></g></g><g fill="#000000" fill-opacity="1"><g transform="translate(350.870404, 181.694904)"><g><path d="M 15.042969 -1.558594 C 14.382812 -1.558594 13.8125 -2.007812 13.8125 -3.117188 L 13.8125 -11.988281 L 11.957031 -11.988281 L 11.957031 -10.429688 C 10.847656 -11.535156 9.289062 -12.226562 7.582031 -12.226562 C 4.136719 -12.226562 1.347656 -9.4375 1.347656 -5.992188 C 1.347656 -2.546875 4.136719 0.238281 7.582031 0.238281 C 9.378906 0.238281 10.996094 -0.597656 12.136719 -1.828125 C 12.527344 -0.597656 13.484375 0.238281 14.894531 0.238281 C 15.222656 0.238281 15.550781 0.148438 15.792969 0 L 15.792969 -1.558594 Z M 7.582031 -1.617188 C 5.152344 -1.617188 3.207031 -3.566406 3.207031 -5.992188 C 3.207031 -8.421875 5.152344 -10.367188 7.582031 -10.367188 C 9.980469 -10.367188 11.957031 -8.421875 11.957031 -5.992188 C 11.957031 -3.566406 9.980469 -1.617188 7.582031 -1.617188 Z M 7.582031 -1.617188 "/></g></g></g><g fill="#000000" fill-opacity="1"><g transform="translate(367.022027, 181.694904)"><g><path d="M 11.957031 -22.054688 L 11.957031 -10.429688 C 10.816406 -11.535156 9.289062 -12.226562 7.582031 -12.226562 C 4.136719 -12.226562 1.347656 -9.4375 1.347656 -5.992188 C 1.347656 -2.546875 4.136719 0.238281 7.582031 0.238281 C 9.289062 0.238281 10.816406 -0.449219 11.957031 -1.558594 L 11.957031 0 L 13.8125 0 L 13.8125 -22.054688 Z M 7.582031 -1.617188 C 5.152344 -1.617188 3.207031 -3.566406 3.207031 -5.992188 C 3.207031 -8.421875 5.152344 -10.367188 7.582031 -10.367188 C 9.980469 -10.367188 11.957031 -8.421875 11.957031 -5.992188 C 11.957031 -3.566406 9.980469 -1.617188 7.582031 -1.617188 Z M 7.582031 -1.617188 "/></g></g></g><g fill="#000000" fill-opacity="1"><g transform="translate(383.023824, 181.694904)"><g><path d="M 7.582031 0.238281 C 11.027344 0.238281 13.8125 -2.546875 13.8125 -5.992188 C 13.8125 -9.4375 11.027344 -12.226562 7.582031 -12.226562 C 4.136719 -12.226562 1.347656 -9.4375 1.347656 -5.992188 C 1.347656 -2.546875 4.136719 0.238281 7.582031 0.238281 Z M 7.582031 -1.617188 C 5.152344 -1.617188 3.207031 -3.566406 3.207031 -5.992188 C 3.207031 -8.421875 5.152344 -10.367188 7.582031 -10.367188 C 9.980469 -10.367188 11.957031 -8.421875 11.957031 -5.992188 C 11.957031 -3.566406 9.980469 -1.617188 7.582031 -1.617188 Z M 7.582031 -1.617188 "/></g></g></g><g fill="#000000" fill-opacity="1"><g transform="translate(398.186567, 181.694904)"><g/></g></g><g fill="#000000" fill-opacity="1"><g transform="translate(405.408344, 181.694904)"><g><path d="M 11.957031 -22.054688 L 11.957031 -10.429688 C 10.816406 -11.535156 9.289062 -12.226562 7.582031 -12.226562 C 4.136719 -12.226562 1.347656 -9.4375 1.347656 -5.992188 C 1.347656 -2.546875 4.136719 0.238281 7.582031 0.238281 C 9.289062 0.238281 10.816406 -0.449219 11.957031 -1.558594 L 11.957031 0 L 13.8125 0 L 13.8125 -22.054688 Z M 7.582031 -1.617188 C 5.152344 -1.617188 3.207031 -3.566406 3.207031 -5.992188 C 3.207031 -8.421875 5.152344 -10.367188 7.582031 -10.367188 C 9.980469 -10.367188 11.957031 -8.421875 11.957031 -5.992188 C 11.957031 -3.566406 9.980469 -1.617188 7.582031 -1.617188 Z M 7.582031 -1.617188 "/></g></g></g><g fill="#000000" fill-opacity="1"><g transform="translate(421.410141, 181.694904)"><g><path d="M 13.8125 -6.113281 C 13.722656 -9.558594 10.996094 -12.226562 7.582031 -12.226562 C 4.136719 -12.226562 1.347656 -9.4375 1.347656 -5.992188 C 1.347656 -2.546875 4.136719 0.238281 7.582031 0.238281 C 10.429688 0.238281 12.796875 -1.648438 13.574219 -4.226562 L 11.597656 -4.226562 C 10.9375 -2.667969 9.378906 -1.617188 7.582031 -1.617188 C 5.214844 -1.617188 3.328125 -3.417969 3.207031 -5.722656 L 13.785156 -5.722656 Z M 7.582031 -10.367188 C 9.5 -10.367188 11.117188 -9.140625 11.6875 -7.402344 L 3.445312 -7.402344 C 4.046875 -9.140625 5.664062 -10.367188 7.582031 -10.367188 Z M 7.582031 -10.367188 "/></g></g></g><g fill="#000000" fill-opacity="1"><g transform="translate(436.453029, 181.694904)"><g/></g></g><g fill="#000000" fill-opacity="1"><g transform="translate(443.674806, 181.694904)"><g><path d="M 7.941406 -11.988281 L 4.734375 -11.988281 L 4.734375 -18.429688 C 4.734375 -19.539062 5.574219 -20.257812 6.53125 -20.257812 L 7.910156 -20.226562 L 7.910156 -21.664062 C 7.582031 -21.875 6.921875 -22.054688 6.324219 -22.054688 C 4.464844 -22.054688 2.875 -20.554688 2.875 -18.667969 L 2.875 -11.988281 L 0.867188 -11.988281 L 0.867188 -10.1875 L 2.875 -10.1875 L 2.875 0 L 4.734375 0 L 4.734375 -10.1875 L 7.941406 -10.1875 Z M 7.941406 -11.988281 "/></g></g></g><g fill="#000000" fill-opacity="1"><g transform="translate(451.945398, 181.694904)"><g><path d="M 3.355469 -14.234375 C 4.046875 -14.234375 4.644531 -14.804688 4.644531 -15.492188 C 4.644531 -16.242188 4.046875 -16.78125 3.355469 -16.78125 C 2.636719 -16.78125 2.039062 -16.242188 2.039062 -15.492188 C 2.039062 -14.804688 2.636719 -14.234375 3.355469 -14.234375 Z M 2.425781 0 L 4.285156 0 L 4.285156 -11.988281 L 2.425781 -11.988281 Z M 2.425781 0 "/></g></g></g><g fill="#000000" fill-opacity="1"><g transform="translate(458.627788, 181.694904)"><g><path d="M 6.953125 -12.226562 C 5.84375 -12.226562 4.824219 -11.777344 4.046875 -11.027344 L 4.046875 -11.988281 L 2.1875 -11.988281 L 2.1875 0 L 4.046875 0 L 4.046875 -7.640625 C 4.046875 -9.167969 5.273438 -10.367188 6.800781 -10.367188 C 8.332031 -10.367188 9.527344 -9.167969 9.527344 -7.640625 L 9.527344 0 L 11.386719 0 L 11.386719 -7.640625 C 11.386719 -10.1875 9.257812 -12.226562 6.953125 -12.226562 Z M 6.953125 -12.226562 "/></g></g></g><g fill="#000000" fill-opacity="1"><g transform="translate(472.052513, 181.694904)"><g><path d="M 15.042969 -1.558594 C 14.382812 -1.558594 13.8125 -2.007812 13.8125 -3.117188 L 13.8125 -11.988281 L 11.957031 -11.988281 L 11.957031 -10.429688 C 10.847656 -11.535156 9.289062 -12.226562 7.582031 -12.226562 C 4.136719 -12.226562 1.347656 -9.4375 1.347656 -5.992188 C 1.347656 -2.546875 4.136719 0.238281 7.582031 0.238281 C 9.378906 0.238281 10.996094 -0.597656 12.136719 -1.828125 C 12.527344 -0.597656 13.484375 0.238281 14.894531 0.238281 C 15.222656 0.238281 15.550781 0.148438 15.792969 0 L 15.792969 -1.558594 Z M 7.582031 -1.617188 C 5.152344 -1.617188 3.207031 -3.566406 3.207031 -5.992188 C 3.207031 -8.421875 5.152344 -10.367188 7.582031 -10.367188 C 9.980469 -10.367188 11.957031 -8.421875 11.957031 -5.992188 C 11.957031 -3.566406 9.980469 -1.617188 7.582031 -1.617188 Z M 7.582031 -1.617188 "/></g></g></g><g fill="#000000" fill-opacity="1"><g transform="translate(488.204149, 181.694904)"><g><path d="M 2.1875 0 L 4.046875 0 L 4.046875 -22.054688 L 2.1875 -22.054688 Z M 2.1875 0 "/></g></g></g><g fill="#000000" fill-opacity="1"><g transform="translate(494.437068, 181.694904)"><g><path d="M 3.355469 -14.234375 C 4.046875 -14.234375 4.644531 -14.804688 4.644531 -15.492188 C 4.644531 -16.242188 4.046875 -16.78125 3.355469 -16.78125 C 2.636719 -16.78125 2.039062 -16.242188 2.039062 -15.492188 C 2.039062 -14.804688 2.636719 -14.234375 3.355469 -14.234375 Z M 2.425781 0 L 4.285156 0 L 4.285156 -11.988281 L 2.425781 -11.988281 Z M 2.425781 0 "/></g></g></g><g fill="#000000" fill-opacity="1"><g transform="translate(501.119458, 181.694904)"><g><path d="M 11.355469 -11.988281 L 1.46875 -11.988281 L 1.46875 -10.128906 L 7.882812 -10.128906 L 0.988281 0 L 11.355469 0 L 11.355469 -1.859375 L 4.464844 -1.859375 Z M 11.355469 -11.988281 "/></g></g></g><g fill="#000000" fill-opacity="1"><g transform="translate(513.465408, 181.694904)"><g><path d="M 15.042969 -1.558594 C 14.382812 -1.558594 13.8125 -2.007812 13.8125 -3.117188 L 13.8125 -11.988281 L 11.957031 -11.988281 L 11.957031 -10.429688 C 10.847656 -11.535156 9.289062 -12.226562 7.582031 -12.226562 C 4.136719 -12.226562 1.347656 -9.4375 1.347656 -5.992188 C 1.347656 -2.546875 4.136719 0.238281 7.582031 0.238281 C 9.378906 0.238281 10.996094 -0.597656 12.136719 -1.828125 C 12.527344 -0.597656 13.484375 0.238281 14.894531 0.238281 C 15.222656 0.238281 15.550781 0.148438 15.792969 0 L 15.792969 -1.558594 Z M 7.582031 -1.617188 C 5.152344 -1.617188 3.207031 -3.566406 3.207031 -5.992188 C 3.207031 -8.421875 5.152344 -10.367188 7.582031 -10.367188 C 9.980469 -10.367188 11.957031 -8.421875 11.957031 -5.992188 C 11.957031 -3.566406 9.980469 -1.617188 7.582031 -1.617188 Z M 7.582031 -1.617188 "/></g></g></g><g fill="#000000" fill-opacity="1"><g transform="translate(529.617043, 181.694904)"><g><path d="M 7.582031 0.238281 C 10.367188 0.238281 12.707031 -1.558594 13.515625 -4.074219 L 11.535156 -4.074219 C 10.816406 -2.605469 9.320312 -1.617188 7.582031 -1.617188 C 5.152344 -1.617188 3.207031 -3.535156 3.207031 -5.992188 C 3.207031 -8.449219 5.152344 -10.367188 7.582031 -10.367188 C 9.320312 -10.367188 10.816406 -9.378906 11.535156 -7.910156 L 13.515625 -7.910156 C 12.707031 -10.429688 10.367188 -12.226562 7.582031 -12.226562 C 4.136719 -12.226562 1.347656 -9.4375 1.347656 -5.992188 C 1.347656 -2.546875 4.136719 0.238281 7.582031 0.238281 Z M 7.582031 0.238281 "/></g></g></g><g fill="#000000" fill-opacity="1"><g transform="translate(543.910783, 181.694904)"><g><path d="M 3.355469 -14.234375 C 4.046875 -14.234375 4.644531 -14.804688 4.644531 -15.492188 C 4.644531 -16.242188 4.046875 -16.78125 3.355469 -16.78125 C 2.636719 -16.78125 2.039062 -16.242188 2.039062 -15.492188 C 2.039062 -14.804688 2.636719 -14.234375 3.355469 -14.234375 Z M 2.425781 0 L 4.285156 0 L 4.285156 -11.988281 L 2.425781 -11.988281 Z M 2.425781 0 "/></g></g></g><g fill="#000000" fill-opacity="1"><g transform="translate(550.593196, 181.694904)"><g><path d="M 6.832031 -13.542969 L 8.089844 -13.542969 L 11.625 -17.980469 L 9.46875 -17.980469 Z M 7.582031 0.238281 C 11.027344 0.238281 13.8125 -2.546875 13.8125 -5.992188 C 13.8125 -9.4375 11.027344 -12.226562 7.582031 -12.226562 C 4.136719 -12.226562 1.347656 -9.4375 1.347656 -5.992188 C 1.347656 -2.546875 4.136719 0.238281 7.582031 0.238281 Z M 7.582031 -1.617188 C 5.152344 -1.617188 3.207031 -3.566406 3.207031 -5.992188 C 3.207031 -8.421875 5.152344 -10.367188 7.582031 -10.367188 C 9.980469 -10.367188 11.957031 -8.421875 11.957031 -5.992188 C 11.957031 -3.566406 9.980469 -1.617188 7.582031 -1.617188 Z M 7.582031 -1.617188 "/></g></g></g><g fill="#000000" fill-opacity="1"><g transform="translate(565.75595, 181.694904)"><g><path d="M 6.953125 -12.226562 C 5.84375 -12.226562 4.824219 -11.777344 4.046875 -11.027344 L 4.046875 -11.988281 L 2.1875 -11.988281 L 2.1875 0 L 4.046875 0 L 4.046875 -7.640625 C 4.046875 -9.167969 5.273438 -10.367188 6.800781 -10.367188 C 8.332031 -10.367188 9.527344 -9.167969 9.527344 -7.640625 L 9.527344 0 L 11.386719 0 L 11.386719 -7.640625 C 11.386719 -10.1875 9.257812 -12.226562 6.953125 -12.226562 Z M 6.953125 -12.226562 "/></g></g></g><g fill="#000000" fill-opacity="1"><g transform="translate(294.877088, 250.114144)"><g><path d="M 9.125 -12.089844 L 9.125 -13.484375 L 1.753906 -13.484375 L 1.753906 0 L 9.125 0 L 9.125 -1.394531 L 3.191406 -1.394531 L 3.191406 -6.046875 L 8.359375 -6.046875 L 8.359375 -7.4375 L 3.191406 -7.4375 L 3.191406 -12.089844 Z M 9.125 -12.089844 "/></g></g></g><g fill="#000000" fill-opacity="1"><g transform="translate(305.350166, 250.114144)"><g><path d="M 3.867188 0.179688 C 5.4375 0.179688 6.742188 -0.875 6.742188 -2.425781 C 6.742188 -4.046875 5.394531 -4.675781 4.226562 -5.148438 C 3.125 -5.617188 2.5625 -5.867188 2.5625 -6.652344 C 2.5625 -7.417969 3.078125 -7.777344 3.820312 -7.777344 C 4.40625 -7.777344 4.921875 -7.527344 5.167969 -7.058594 L 6.382812 -7.6875 C 6.046875 -8.496094 4.898438 -9.167969 3.753906 -9.167969 C 2.425781 -9.167969 1.144531 -8.25 1.144531 -6.609375 C 1.144531 -5.191406 2.089844 -4.472656 3.6875 -3.867188 C 4.765625 -3.4375 5.347656 -3.144531 5.347656 -2.425781 C 5.347656 -1.640625 4.675781 -1.191406 3.867188 -1.191406 C 3.035156 -1.191406 2.226562 -1.664062 2.089844 -2.316406 L 0.742188 -1.777344 C 1.078125 -0.695312 2.425781 0.179688 3.867188 0.179688 Z M 3.867188 0.179688 "/></g></g></g><g fill="#000000" fill-opacity="1"><g transform="translate(312.789204, 250.114144)"><g><path d="M 5.777344 -7.640625 L 5.777344 -8.988281 L 3.371094 -8.988281 L 3.371094 -12.898438 L 1.976562 -12.898438 L 1.976562 -8.988281 L 0.472656 -8.988281 L 0.472656 -7.640625 L 1.976562 -7.640625 L 1.976562 -2.359375 C 1.976562 -0.945312 3.167969 0.179688 4.5625 0.179688 C 5.011719 0.179688 5.507812 0.046875 5.753906 -0.113281 L 5.753906 -1.167969 L 4.71875 -1.167969 C 4 -1.167969 3.371094 -1.707031 3.371094 -2.539062 L 3.371094 -7.640625 Z M 5.777344 -7.640625 "/></g></g></g><g fill="#000000" fill-opacity="1"><g transform="translate(319.306791, 250.114144)"><g><path d="M 10.359375 -4.585938 C 10.292969 -7.167969 8.25 -9.167969 5.6875 -9.167969 C 3.101562 -9.167969 1.011719 -7.078125 1.011719 -4.496094 C 1.011719 -1.910156 3.101562 0.179688 5.6875 0.179688 C 7.820312 0.179688 9.597656 -1.234375 10.179688 -3.167969 L 8.699219 -3.167969 C 8.203125 -2 7.035156 -1.214844 5.6875 -1.214844 C 3.910156 -1.214844 2.496094 -2.5625 2.40625 -4.292969 L 10.339844 -4.292969 Z M 5.6875 -7.777344 C 7.125 -7.777344 8.339844 -6.855469 8.765625 -5.550781 L 2.585938 -5.550781 C 3.035156 -6.855469 4.246094 -7.777344 5.6875 -7.777344 Z M 5.6875 -7.777344 "/></g></g></g><g fill="#000000" fill-opacity="1"><g transform="translate(330.588952, 250.114144)"><g/></g></g><g fill="#000000" fill-opacity="1"><g transform="translate(336.00529, 250.114144)"><g><path d="M 5.6875 0.179688 C 7.777344 0.179688 9.527344 -1.167969 10.136719 -3.054688 L 8.652344 -3.054688 C 8.113281 -1.957031 6.988281 -1.214844 5.6875 -1.214844 C 3.867188 -1.214844 2.40625 -2.652344 2.40625 -4.496094 C 2.40625 -6.335938 3.867188 -7.777344 5.6875 -7.777344 C 6.988281 -7.777344 8.113281 -7.035156 8.652344 -5.933594 L 10.136719 -5.933594 C 9.527344 -7.820312 7.777344 -9.167969 5.6875 -9.167969 C 3.101562 -9.167969 1.011719 -7.078125 1.011719 -4.496094 C 1.011719 -1.910156 3.101562 0.179688 5.6875 0.179688 Z M 5.6875 0.179688 "/></g></g></g><g fill="#000000" fill-opacity="1"><g transform="translate(346.725589, 250.114144)"><g><path d="M 10.359375 -4.585938 C 10.292969 -7.167969 8.25 -9.167969 5.6875 -9.167969 C 3.101562 -9.167969 1.011719 -7.078125 1.011719 -4.496094 C 1.011719 -1.910156 3.101562 0.179688 5.6875 0.179688 C 7.820312 0.179688 9.597656 -1.234375 10.179688 -3.167969 L 8.699219 -3.167969 C 8.203125 -2 7.035156 -1.214844 5.6875 -1.214844 C 3.910156 -1.214844 2.496094 -2.5625 2.40625 -4.292969 L 10.339844 -4.292969 Z M 5.6875 -7.777344 C 7.125 -7.777344 8.339844 -6.855469 8.765625 -5.550781 L 2.585938 -5.550781 C 3.035156 -6.855469 4.246094 -7.777344 5.6875 -7.777344 Z M 5.6875 -7.777344 "/></g></g></g><g fill="#000000" fill-opacity="1"><g transform="translate(358.007749, 250.114144)"><g><path d="M 6.023438 -9.167969 C 4.742188 -9.167969 3.707031 -8.609375 3.035156 -7.707031 L 3.035156 -8.988281 L 1.640625 -8.988281 L 1.640625 0 L 3.035156 0 L 3.035156 -4.878906 C 3.035156 -6.519531 4.382812 -7.777344 6.023438 -7.777344 C 6.292969 -7.777344 6.519531 -7.753906 6.71875 -7.6875 L 6.71875 -9.101562 C 6.519531 -9.148438 6.292969 -9.167969 6.023438 -9.167969 Z M 6.023438 -9.167969 "/></g></g></g><g fill="#000000" fill-opacity="1"><g transform="translate(364.839978, 250.114144)"><g><path d="M 5.777344 -7.640625 L 5.777344 -8.988281 L 3.371094 -8.988281 L 3.371094 -12.898438 L 1.976562 -12.898438 L 1.976562 -8.988281 L 0.472656 -8.988281 L 0.472656 -7.640625 L 1.976562 -7.640625 L 1.976562 -2.359375 C 1.976562 -0.945312 3.167969 0.179688 4.5625 0.179688 C 5.011719 0.179688 5.507812 0.046875 5.753906 -0.113281 L 5.753906 -1.167969 L 4.71875 -1.167969 C 4 -1.167969 3.371094 -1.707031 3.371094 -2.539062 L 3.371094 -7.640625 Z M 5.777344 -7.640625 "/></g></g></g><g fill="#000000" fill-opacity="1"><g transform="translate(371.357566, 250.114144)"><g><path d="M 2.515625 -10.675781 C 3.035156 -10.675781 3.484375 -11.101562 3.484375 -11.621094 C 3.484375 -12.179688 3.035156 -12.585938 2.515625 -12.585938 C 1.976562 -12.585938 1.527344 -12.179688 1.527344 -11.621094 C 1.527344 -11.101562 1.976562 -10.675781 2.515625 -10.675781 Z M 1.820312 0 L 3.214844 0 L 3.214844 -8.988281 L 1.820312 -8.988281 Z M 1.820312 0 "/></g></g></g><g fill="#000000" fill-opacity="1"><g transform="translate(376.369359, 250.114144)"><g><path d="M 5.957031 -8.988281 L 3.550781 -8.988281 L 3.550781 -13.820312 C 3.550781 -14.652344 4.179688 -15.191406 4.898438 -15.191406 L 5.933594 -15.171875 L 5.933594 -16.25 C 5.6875 -16.40625 5.191406 -16.542969 4.742188 -16.542969 C 3.347656 -16.542969 2.15625 -15.417969 2.15625 -14 L 2.15625 -8.988281 L 0.652344 -8.988281 L 0.652344 -7.640625 L 2.15625 -7.640625 L 2.15625 0 L 3.550781 0 L 3.550781 -7.640625 L 5.957031 -7.640625 Z M 5.957031 -8.988281 "/></g></g></g><g fill="#000000" fill-opacity="1"><g transform="translate(382.572306, 250.114144)"><g><path d="M 2.515625 -10.675781 C 3.035156 -10.675781 3.484375 -11.101562 3.484375 -11.621094 C 3.484375 -12.179688 3.035156 -12.585938 2.515625 -12.585938 C 1.976562 -12.585938 1.527344 -12.179688 1.527344 -11.621094 C 1.527344 -11.101562 1.976562 -10.675781 2.515625 -10.675781 Z M 1.820312 0 L 3.214844 0 L 3.214844 -8.988281 L 1.820312 -8.988281 Z M 1.820312 0 "/></g></g></g><g fill="#000000" fill-opacity="1"><g transform="translate(387.584098, 250.114144)"><g><path d="M 5.6875 0.179688 C 7.777344 0.179688 9.527344 -1.167969 10.136719 -3.054688 L 8.652344 -3.054688 C 8.113281 -1.957031 6.988281 -1.214844 5.6875 -1.214844 C 3.867188 -1.214844 2.40625 -2.652344 2.40625 -4.496094 C 2.40625 -6.335938 3.867188 -7.777344 5.6875 -7.777344 C 6.988281 -7.777344 8.113281 -7.035156 8.652344 -5.933594 L 10.136719 -5.933594 C 9.527344 -7.820312 7.777344 -9.167969 5.6875 -9.167969 C 3.101562 -9.167969 1.011719 -7.078125 1.011719 -4.496094 C 1.011719 -1.910156 3.101562 0.179688 5.6875 0.179688 Z M 5.6875 0.179688 "/></g></g></g><g fill="#000000" fill-opacity="1"><g transform="translate(398.304397, 250.114144)"><g><path d="M 11.28125 -1.167969 C 10.789062 -1.167969 10.359375 -1.503906 10.359375 -2.335938 L 10.359375 -8.988281 L 8.96875 -8.988281 L 8.96875 -7.820312 C 8.136719 -8.652344 6.96875 -9.167969 5.6875 -9.167969 C 3.101562 -9.167969 1.011719 -7.078125 1.011719 -4.496094 C 1.011719 -1.910156 3.101562 0.179688 5.6875 0.179688 C 7.035156 0.179688 8.25 -0.449219 9.101562 -1.371094 C 9.394531 -0.449219 10.113281 0.179688 11.167969 0.179688 C 11.417969 0.179688 11.664062 0.113281 11.84375 0 L 11.84375 -1.167969 Z M 5.6875 -1.214844 C 3.867188 -1.214844 2.40625 -2.675781 2.40625 -4.496094 C 2.40625 -6.316406 3.867188 -7.777344 5.6875 -7.777344 C 7.484375 -7.777344 8.96875 -6.316406 8.96875 -4.496094 C 8.96875 -2.675781 7.484375 -1.214844 5.6875 -1.214844 Z M 5.6875 -1.214844 "/></g></g></g><g fill="#000000" fill-opacity="1"><g transform="translate(410.418112, 250.114144)"><g><path d="M 8.96875 -16.542969 L 8.96875 -7.820312 C 8.113281 -8.652344 6.96875 -9.167969 5.6875 -9.167969 C 3.101562 -9.167969 1.011719 -7.078125 1.011719 -4.496094 C 1.011719 -1.910156 3.101562 0.179688 5.6875 0.179688 C 6.96875 0.179688 8.113281 -0.335938 8.96875 -1.167969 L 8.96875 0 L 10.359375 0 L 10.359375 -16.542969 Z M 5.6875 -1.214844 C 3.867188 -1.214844 2.40625 -2.675781 2.40625 -4.496094 C 2.40625 -6.316406 3.867188 -7.777344 5.6875 -7.777344 C 7.484375 -7.777344 8.96875 -6.316406 8.96875 -4.496094 C 8.96875 -2.675781 7.484375 -1.214844 5.6875 -1.214844 Z M 5.6875 -1.214844 "/></g></g></g><g fill="#000000" fill-opacity="1"><g transform="translate(422.41946, 250.114144)"><g><path d="M 5.6875 0.179688 C 8.269531 0.179688 10.359375 -1.910156 10.359375 -4.496094 C 10.359375 -7.078125 8.269531 -9.167969 5.6875 -9.167969 C 3.101562 -9.167969 1.011719 -7.078125 1.011719 -4.496094 C 1.011719 -1.910156 3.101562 0.179688 5.6875 0.179688 Z M 5.6875 -1.214844 C 3.867188 -1.214844 2.40625 -2.675781 2.40625 -4.496094 C 2.40625 -6.316406 3.867188 -7.777344 5.6875 -7.777344 C 7.484375 -7.777344 8.96875 -6.316406 8.96875 -4.496094 C 8.96875 -2.675781 7.484375 -1.214844 5.6875 -1.214844 Z M 5.6875 -1.214844 "/></g></g></g><g fill="#000000" fill-opacity="1"><g transform="translate(433.791525, 250.114144)"><g/></g></g><g fill="#000000" fill-opacity="1"><g transform="translate(439.207864, 250.114144)"><g><path d="M 3.867188 0.179688 C 5.4375 0.179688 6.742188 -0.875 6.742188 -2.425781 C 6.742188 -4.046875 5.394531 -4.675781 4.226562 -5.148438 C 3.125 -5.617188 2.5625 -5.867188 2.5625 -6.652344 C 2.5625 -7.417969 3.078125 -7.777344 3.820312 -7.777344 C 4.40625 -7.777344 4.921875 -7.527344 5.167969 -7.058594 L 6.382812 -7.6875 C 6.046875 -8.496094 4.898438 -9.167969 3.753906 -9.167969 C 2.425781 -9.167969 1.144531 -8.25 1.144531 -6.609375 C 1.144531 -5.191406 2.089844 -4.472656 3.6875 -3.867188 C 4.765625 -3.4375 5.347656 -3.144531 5.347656 -2.425781 C 5.347656 -1.640625 4.675781 -1.191406 3.867188 -1.191406 C 3.035156 -1.191406 2.226562 -1.664062 2.089844 -2.316406 L 0.742188 -1.777344 C 1.078125 -0.695312 2.425781 0.179688 3.867188 0.179688 Z M 3.867188 0.179688 "/></g></g></g><g fill="#000000" fill-opacity="1"><g transform="translate(446.646901, 250.114144)"><g><path d="M 10.359375 -4.585938 C 10.292969 -7.167969 8.25 -9.167969 5.6875 -9.167969 C 3.101562 -9.167969 1.011719 -7.078125 1.011719 -4.496094 C 1.011719 -1.910156 3.101562 0.179688 5.6875 0.179688 C 7.820312 0.179688 9.597656 -1.234375 10.179688 -3.167969 L 8.699219 -3.167969 C 8.203125 -2 7.035156 -1.214844 5.6875 -1.214844 C 3.910156 -1.214844 2.496094 -2.5625 2.40625 -4.292969 L 10.339844 -4.292969 Z M 5.6875 -7.777344 C 7.125 -7.777344 8.339844 -6.855469 8.765625 -5.550781 L 2.585938 -5.550781 C 3.035156 -6.855469 4.246094 -7.777344 5.6875 -7.777344 Z M 5.6875 -7.777344 "/></g></g></g><g fill="#000000" fill-opacity="1"><g transform="translate(457.929061, 250.114144)"><g/></g></g><g fill="#000000" fill-opacity="1"><g transform="translate(463.3454, 250.114144)"><g><path d="M 5.6875 0.179688 C 8.269531 0.179688 10.359375 -1.910156 10.359375 -4.496094 C 10.359375 -7.078125 8.269531 -9.167969 5.6875 -9.167969 C 3.101562 -9.167969 1.011719 -7.078125 1.011719 -4.496094 C 1.011719 -1.910156 3.101562 0.179688 5.6875 0.179688 Z M 5.6875 -1.214844 C 3.867188 -1.214844 2.40625 -2.675781 2.40625 -4.496094 C 2.40625 -6.316406 3.867188 -7.777344 5.6875 -7.777344 C 7.484375 -7.777344 8.96875 -6.316406 8.96875 -4.496094 C 8.96875 -2.675781 7.484375 -1.214844 5.6875 -1.214844 Z M 5.6875 -1.214844 "/></g></g></g><g fill="#000000" fill-opacity="1"><g transform="translate(474.717466, 250.114144)"><g><path d="M 5.777344 -7.640625 L 5.777344 -8.988281 L 3.371094 -8.988281 L 3.371094 -12.898438 L 1.976562 -12.898438 L 1.976562 -8.988281 L 0.472656 -8.988281 L 0.472656 -7.640625 L 1.976562 -7.640625 L 1.976562 -2.359375 C 1.976562 -0.945312 3.167969 0.179688 4.5625 0.179688 C 5.011719 0.179688 5.507812 0.046875 5.753906 -0.113281 L 5.753906 -1.167969 L 4.71875 -1.167969 C 4 -1.167969 3.371094 -1.707031 3.371094 -2.539062 L 3.371094 -7.640625 Z M 5.777344 -7.640625 "/></g></g></g><g fill="#000000" fill-opacity="1"><g transform="translate(481.235054, 250.114144)"><g><path d="M 5.6875 0.179688 C 8.269531 0.179688 10.359375 -1.910156 10.359375 -4.496094 C 10.359375 -7.078125 8.269531 -9.167969 5.6875 -9.167969 C 3.101562 -9.167969 1.011719 -7.078125 1.011719 -4.496094 C 1.011719 -1.910156 3.101562 0.179688 5.6875 0.179688 Z M 5.6875 -1.214844 C 3.867188 -1.214844 2.40625 -2.675781 2.40625 -4.496094 C 2.40625 -6.316406 3.867188 -7.777344 5.6875 -7.777344 C 7.484375 -7.777344 8.96875 -6.316406 8.96875 -4.496094 C 8.96875 -2.675781 7.484375 -1.214844 5.6875 -1.214844 Z M 5.6875 -1.214844 "/></g></g></g><g fill="#000000" fill-opacity="1"><g transform="translate(492.607108, 250.114144)"><g><path d="M 6.023438 -9.167969 C 4.742188 -9.167969 3.707031 -8.609375 3.035156 -7.707031 L 3.035156 -8.988281 L 1.640625 -8.988281 L 1.640625 0 L 3.035156 0 L 3.035156 -4.878906 C 3.035156 -6.519531 4.382812 -7.777344 6.023438 -7.777344 C 6.292969 -7.777344 6.519531 -7.753906 6.71875 -7.6875 L 6.71875 -9.101562 C 6.519531 -9.148438 6.292969 -9.167969 6.023438 -9.167969 Z M 6.023438 -9.167969 "/></g></g></g><g fill="#000000" fill-opacity="1"><g transform="translate(499.439337, 250.114144)"><g><path d="M 8.945312 -8.988281 L 8.945312 -7.867188 C 8.113281 -8.675781 6.945312 -9.167969 5.6875 -9.167969 C 3.101562 -9.167969 1.011719 -7.101562 1.011719 -4.496094 C 1.011719 -1.910156 3.101562 0.179688 5.6875 0.179688 C 6.96875 0.179688 8.113281 -0.335938 8.96875 -1.167969 L 8.96875 0.785156 C 8.96875 2.585938 7.484375 4.066406 5.6875 4.066406 C 4.226562 4.066406 2.988281 3.101562 2.5625 1.796875 L 1.28125 2.359375 C 1.933594 4.179688 3.664062 5.460938 5.6875 5.460938 C 8.269531 5.460938 10.359375 3.371094 10.359375 0.785156 L 10.359375 -8.988281 Z M 5.6875 -1.214844 C 3.867188 -1.214844 2.40625 -2.695312 2.40625 -4.496094 C 2.40625 -6.316406 3.867188 -7.777344 5.6875 -7.777344 C 7.484375 -7.777344 8.96875 -6.316406 8.96875 -4.496094 C 8.96875 -2.695312 7.484375 -1.214844 5.6875 -1.214844 Z M 5.6875 -1.214844 "/></g></g></g><g fill="#000000" fill-opacity="1"><g transform="translate(511.440684, 250.114144)"><g><path d="M 11.28125 -1.167969 C 10.789062 -1.167969 10.359375 -1.503906 10.359375 -2.335938 L 10.359375 -8.988281 L 8.96875 -8.988281 L 8.96875 -7.820312 C 8.136719 -8.652344 6.96875 -9.167969 5.6875 -9.167969 C 3.101562 -9.167969 1.011719 -7.078125 1.011719 -4.496094 C 1.011719 -1.910156 3.101562 0.179688 5.6875 0.179688 C 7.035156 0.179688 8.25 -0.449219 9.101562 -1.371094 C 9.394531 -0.449219 10.113281 0.179688 11.167969 0.179688 C 11.417969 0.179688 11.664062 0.113281 11.84375 0 L 11.84375 -1.167969 Z M 5.6875 -1.214844 C 3.867188 -1.214844 2.40625 -2.675781 2.40625 -4.496094 C 2.40625 -6.316406 3.867188 -7.777344 5.6875 -7.777344 C 7.484375 -7.777344 8.96875 -6.316406 8.96875 -4.496094 C 8.96875 -2.675781 7.484375 -1.214844 5.6875 -1.214844 Z M 5.6875 -1.214844 "/></g></g></g><g fill="#000000" fill-opacity="1"><g transform="translate(523.5544, 250.114144)"><g/></g></g><g fill="#000000" fill-opacity="1"><g transform="translate(528.97075, 250.114144)"><g><path d="M 11.28125 -1.167969 C 10.789062 -1.167969 10.359375 -1.503906 10.359375 -2.335938 L 10.359375 -8.988281 L 8.96875 -8.988281 L 8.96875 -7.820312 C 8.136719 -8.652344 6.96875 -9.167969 5.6875 -9.167969 C 3.101562 -9.167969 1.011719 -7.078125 1.011719 -4.496094 C 1.011719 -1.910156 3.101562 0.179688 5.6875 0.179688 C 7.035156 0.179688 8.25 -0.449219 9.101562 -1.371094 C 9.394531 -0.449219 10.113281 0.179688 11.167969 0.179688 C 11.417969 0.179688 11.664062 0.113281 11.84375 0 L 11.84375 -1.167969 Z M 5.6875 -1.214844 C 3.867188 -1.214844 2.40625 -2.675781 2.40625 -4.496094 C 2.40625 -6.316406 3.867188 -7.777344 5.6875 -7.777344 C 7.484375 -7.777344 8.96875 -6.316406 8.96875 -4.496094 C 8.96875 -2.675781 7.484375 -1.214844 5.6875 -1.214844 Z M 5.6875 -1.214844 "/></g></g></g><g fill="#000000" fill-opacity="1"><g transform="translate(541.084465, 250.114144)"><g><path d="M 2.785156 -7.238281 C 3.328125 -7.238281 3.777344 -7.664062 3.777344 -8.203125 C 3.777344 -8.71875 3.328125 -9.167969 2.785156 -9.167969 C 2.269531 -9.167969 1.820312 -8.71875 1.820312 -8.203125 C 1.820312 -7.664062 2.269531 -7.238281 2.785156 -7.238281 Z M 2.785156 0.179688 C 3.328125 0.179688 3.777344 -0.246094 3.777344 -0.785156 C 3.777344 -1.304688 3.328125 -1.753906 2.785156 -1.753906 C 2.269531 -1.753906 1.820312 -1.304688 1.820312 -0.785156 C 1.820312 -0.246094 2.269531 0.179688 2.785156 0.179688 Z M 2.785156 0.179688 "/></g></g></g><path stroke-linecap="round" transform="matrix(1.500834, 0, 0, 1.498297, 334.394565, 485.912167)" fill="none" stroke-linejoin="miter" d="M 0.499699 0.00126539 L 114.811106 0.00126539 " stroke="#a6a6a6" stroke-width="1" stroke-opacity="1" stroke-miterlimit="4"/></svg>